<svg xmlns="http://www.w3.org/2000/svg" xmlns:xlink="http://www.w3.org/1999/xlink" width="500" zoomAndPan="magnify" viewBox="0 0 375 149.999998" height="200" preserveAspectRatio="xMidYMid meet" version="1.0"><defs><g/><clipPath id="8693b32c16"><path d="M 20.171875 48.746094 L 80.171875 48.746094 L 80.171875 108.746094 L 20.171875 108.746094 Z M 20.171875 48.746094 " clip-rule="nonzero"/></clipPath></defs><g clip-path="url(#8693b32c16)"><path fill="#ffffff" d="M 50.171875 108.746094 C 33.597656 108.746094 20.171875 95.226562 20.171875 78.746094 C 20.171875 62.261719 33.597656 48.746094 50.171875 48.746094 C 66.746094 48.746094 80.171875 62.171875 80.171875 78.746094 C 80.171875 95.320312 66.652344 108.746094 50.171875 108.746094 Z M 50.171875 50.597656 C 34.613281 50.597656 22.023438 63.1875 22.023438 78.746094 C 22.023438 94.300781 34.613281 106.894531 50.171875 106.894531 C 65.726562 106.894531 78.320312 94.300781 78.320312 78.746094 C 78.320312 63.1875 65.632812 50.597656 50.171875 50.597656 Z M 50.171875 50.597656 " fill-opacity="1" fill-rule="nonzero"/></g><g fill="#ffffff" fill-opacity="1"><g transform="translate(26.557432, 86.105095)"><g><path d="M 23.097656 -15.753906 L 19.3125 -15.753906 C 18.9375 -15.753906 18.617188 -15.503906 18.492188 -15.152344 L 15.722656 -7.363281 L 14.21875 -11.554688 L 15.734375 -15.027344 C 15.910156 -15.433594 15.742188 -15.753906 15.265625 -15.753906 L 11.480469 -15.753906 C 11.109375 -15.753906 10.785156 -15.503906 10.660156 -15.152344 L 7.890625 -7.445312 L 5.132812 -15.152344 C 5.019531 -15.472656 4.71875 -15.753906 4.304688 -15.753906 L 0.527344 -15.753906 C 0.0742188 -15.753906 -0.136719 -15.453125 0.0507812 -15.027344 L 6.492188 -0.320312 C 6.667969 0.0742188 7.019531 0.289062 7.363281 0.289062 L 8.484375 0.289062 C 8.867188 0.289062 9.179688 0.0195312 9.324219 -0.320312 L 11.792969 -5.984375 L 14.324219 -0.320312 C 14.5 0.0742188 14.851562 0.289062 15.195312 0.289062 L 16.3125 0.289062 C 16.699219 0.289062 17.007812 0.0195312 17.152344 -0.320312 L 23.5625 -15.027344 C 23.738281 -15.433594 23.574219 -15.753906 23.097656 -15.753906 Z M 23.097656 -15.753906 "/></g></g></g><g fill="#ffffff" fill-opacity="1"><g transform="translate(50.166157, 86.105095)"><g><path d="M 23.097656 -15.753906 L 19.3125 -15.753906 C 18.9375 -15.753906 18.617188 -15.503906 18.492188 -15.152344 L 15.722656 -7.363281 L 14.21875 -11.554688 L 15.734375 -15.027344 C 15.910156 -15.433594 15.742188 -15.753906 15.265625 -15.753906 L 11.480469 -15.753906 C 11.109375 -15.753906 10.785156 -15.503906 10.660156 -15.152344 L 7.890625 -7.445312 L 5.132812 -15.152344 C 5.019531 -15.472656 4.71875 -15.753906 4.304688 -15.753906 L 0.527344 -15.753906 C 0.0742188 -15.753906 -0.136719 -15.453125 0.0507812 -15.027344 L 6.492188 -0.320312 C 6.667969 0.0742188 7.019531 0.289062 7.363281 0.289062 L 8.484375 0.289062 C 8.867188 0.289062 9.179688 0.0195312 9.324219 -0.320312 L 11.792969 -5.984375 L 14.324219 -0.320312 C 14.5 0.0742188 14.851562 0.289062 15.195312 0.289062 L 16.3125 0.289062 C 16.699219 0.289062 17.007812 0.0195312 17.152344 -0.320312 L 23.5625 -15.027344 C 23.738281 -15.433594 23.574219 -15.753906 23.097656 -15.753906 Z M 23.097656 -15.753906 "/></g></g></g><g fill="#ffffff" fill-opacity="1"><g transform="translate(80.170707, 102.588848)"><g><path d="M 1.796875 0 L 1.796875 -16.3125 L 4.5 -16.3125 C 5.039062 -16.3125 5.40625 -16.0625 5.59375 -15.5625 L 5.84375 -14.5 C 6.125 -14.789062 6.414062 -15.0625 6.71875 -15.3125 C 7.019531 -15.570312 7.34375 -15.789062 7.6875 -15.96875 C 8.039062 -16.15625 8.421875 -16.300781 8.828125 -16.40625 C 9.234375 -16.519531 9.671875 -16.578125 10.140625 -16.578125 C 11.148438 -16.578125 11.976562 -16.304688 12.625 -15.765625 C 13.28125 -15.234375 13.78125 -14.523438 14.125 -13.640625 C 14.382812 -14.160156 14.707031 -14.609375 15.09375 -14.984375 C 15.476562 -15.359375 15.898438 -15.660156 16.359375 -15.890625 C 16.816406 -16.117188 17.300781 -16.289062 17.8125 -16.40625 C 18.320312 -16.519531 18.835938 -16.578125 19.359375 -16.578125 C 20.273438 -16.578125 21.085938 -16.4375 21.796875 -16.15625 C 22.503906 -15.882812 23.097656 -15.484375 23.578125 -14.953125 C 24.054688 -14.421875 24.421875 -13.769531 24.671875 -13 C 24.929688 -12.226562 25.0625 -11.351562 25.0625 -10.375 L 25.0625 0 L 20.6875 0 L 20.6875 -10.375 C 20.6875 -12.28125 19.867188 -13.234375 18.234375 -13.234375 C 17.867188 -13.234375 17.53125 -13.171875 17.21875 -13.046875 C 16.90625 -12.929688 16.628906 -12.75 16.390625 -12.5 C 16.148438 -12.257812 15.960938 -11.957031 15.828125 -11.59375 C 15.703125 -11.238281 15.640625 -10.832031 15.640625 -10.375 L 15.640625 0 L 11.265625 0 L 11.265625 -10.375 C 11.265625 -11.40625 11.0625 -12.140625 10.65625 -12.578125 C 10.25 -13.015625 9.648438 -13.234375 8.859375 -13.234375 C 8.359375 -13.234375 7.882812 -13.113281 7.4375 -12.875 C 6.988281 -12.632812 6.566406 -12.304688 6.171875 -11.890625 L 6.171875 0 Z M 1.796875 0 "/></g></g></g><g fill="#ffffff" fill-opacity="1"><g transform="translate(106.869348, 102.588848)"><g><path d="M 6.296875 -16.3125 L 6.296875 0 L 1.9375 0 L 1.9375 -16.3125 Z M 6.828125 -20.953125 C 6.828125 -20.585938 6.75 -20.242188 6.59375 -19.921875 C 6.445312 -19.609375 6.25 -19.328125 6 -19.078125 C 5.757812 -18.835938 5.472656 -18.648438 5.140625 -18.515625 C 4.804688 -18.378906 4.445312 -18.3125 4.0625 -18.3125 C 3.707031 -18.3125 3.367188 -18.378906 3.046875 -18.515625 C 2.722656 -18.648438 2.441406 -18.835938 2.203125 -19.078125 C 1.960938 -19.328125 1.769531 -19.609375 1.625 -19.921875 C 1.476562 -20.242188 1.40625 -20.585938 1.40625 -20.953125 C 1.40625 -21.328125 1.476562 -21.671875 1.625 -21.984375 C 1.769531 -22.304688 1.960938 -22.585938 2.203125 -22.828125 C 2.441406 -23.078125 2.722656 -23.269531 3.046875 -23.40625 C 3.367188 -23.539062 3.707031 -23.609375 4.0625 -23.609375 C 4.445312 -23.609375 4.804688 -23.539062 5.140625 -23.40625 C 5.472656 -23.269531 5.757812 -23.078125 6 -22.828125 C 6.25 -22.585938 6.445312 -22.304688 6.59375 -21.984375 C 6.75 -21.671875 6.828125 -21.328125 6.828125 -20.953125 Z M 6.828125 -20.953125 "/></g></g></g><g fill="#ffffff" fill-opacity="1"><g transform="translate(115.09892, 102.588848)"><g><path d="M 13.640625 -12.671875 C 13.515625 -12.503906 13.390625 -12.375 13.265625 -12.28125 C 13.140625 -12.195312 12.957031 -12.15625 12.71875 -12.15625 C 12.507812 -12.15625 12.304688 -12.210938 12.109375 -12.328125 C 11.921875 -12.453125 11.695312 -12.585938 11.4375 -12.734375 C 11.1875 -12.878906 10.882812 -13.007812 10.53125 -13.125 C 10.1875 -13.25 9.757812 -13.3125 9.25 -13.3125 C 8.59375 -13.3125 8.023438 -13.191406 7.546875 -12.953125 C 7.066406 -12.710938 6.664062 -12.367188 6.34375 -11.921875 C 6.03125 -11.484375 5.796875 -10.945312 5.640625 -10.3125 C 5.484375 -9.6875 5.40625 -8.976562 5.40625 -8.1875 C 5.40625 -6.519531 5.738281 -5.238281 6.40625 -4.34375 C 7.082031 -3.457031 8.003906 -3.015625 9.171875 -3.015625 C 9.566406 -3.015625 9.910156 -3.050781 10.203125 -3.125 C 10.492188 -3.195312 10.742188 -3.285156 10.953125 -3.390625 C 11.171875 -3.492188 11.359375 -3.609375 11.515625 -3.734375 C 11.679688 -3.859375 11.832031 -3.972656 11.96875 -4.078125 C 12.113281 -4.179688 12.253906 -4.269531 12.390625 -4.34375 C 12.535156 -4.414062 12.703125 -4.453125 12.890625 -4.453125 C 13.222656 -4.453125 13.484375 -4.320312 13.671875 -4.0625 L 14.921875 -2.484375 C 14.460938 -1.941406 13.96875 -1.492188 13.4375 -1.140625 C 12.90625 -0.796875 12.359375 -0.519531 11.796875 -0.3125 C 11.234375 -0.101562 10.660156 0.0351562 10.078125 0.109375 C 9.503906 0.191406 8.929688 0.234375 8.359375 0.234375 C 7.359375 0.234375 6.40625 0.046875 5.5 -0.328125 C 4.601562 -0.703125 3.816406 -1.242188 3.140625 -1.953125 C 2.472656 -2.671875 1.941406 -3.550781 1.546875 -4.59375 C 1.148438 -5.644531 0.953125 -6.84375 0.953125 -8.1875 C 0.953125 -9.375 1.125 -10.476562 1.46875 -11.5 C 1.820312 -12.53125 2.332031 -13.421875 3 -14.171875 C 3.675781 -14.921875 4.515625 -15.507812 5.515625 -15.9375 C 6.515625 -16.363281 7.664062 -16.578125 8.96875 -16.578125 C 10.21875 -16.578125 11.3125 -16.375 12.25 -15.96875 C 13.1875 -15.570312 14.03125 -14.992188 14.78125 -14.234375 Z M 13.640625 -12.671875 "/></g></g></g><g fill="#ffffff" fill-opacity="1"><g transform="translate(130.418587, 102.588848)"><g><path d="M 5.90625 -13.625 C 6.414062 -14.550781 7.007812 -15.285156 7.6875 -15.828125 C 8.363281 -16.367188 9.15625 -16.640625 10.0625 -16.640625 C 10.800781 -16.640625 11.40625 -16.460938 11.875 -16.109375 L 11.59375 -12.890625 C 11.53125 -12.671875 11.441406 -12.519531 11.328125 -12.4375 C 11.222656 -12.363281 11.078125 -12.328125 10.890625 -12.328125 C 10.722656 -12.328125 10.476562 -12.347656 10.15625 -12.390625 C 9.84375 -12.441406 9.550781 -12.46875 9.28125 -12.46875 C 8.875 -12.46875 8.515625 -12.410156 8.203125 -12.296875 C 7.890625 -12.179688 7.613281 -12.015625 7.375 -11.796875 C 7.132812 -11.585938 6.914062 -11.332031 6.71875 -11.03125 C 6.519531 -10.726562 6.335938 -10.378906 6.171875 -9.984375 L 6.171875 0 L 1.796875 0 L 1.796875 -16.3125 L 4.390625 -16.3125 C 4.828125 -16.3125 5.128906 -16.234375 5.296875 -16.078125 C 5.472656 -15.921875 5.597656 -15.648438 5.671875 -15.265625 Z M 5.90625 -13.625 "/></g></g></g><g fill="#ffffff" fill-opacity="1"><g transform="translate(142.351467, 102.588848)"><g><path d="M 9.171875 -16.578125 C 10.390625 -16.578125 11.5 -16.378906 12.5 -15.984375 C 13.507812 -15.597656 14.367188 -15.039062 15.078125 -14.3125 C 15.796875 -13.59375 16.347656 -12.710938 16.734375 -11.671875 C 17.128906 -10.640625 17.328125 -9.476562 17.328125 -8.1875 C 17.328125 -6.882812 17.128906 -5.710938 16.734375 -4.671875 C 16.347656 -3.640625 15.796875 -2.757812 15.078125 -2.03125 C 14.367188 -1.300781 13.507812 -0.738281 12.5 -0.34375 C 11.5 0.0390625 10.390625 0.234375 9.171875 0.234375 C 7.929688 0.234375 6.804688 0.0390625 5.796875 -0.34375 C 4.796875 -0.738281 3.9375 -1.300781 3.21875 -2.03125 C 2.5 -2.757812 1.941406 -3.640625 1.546875 -4.671875 C 1.148438 -5.710938 0.953125 -6.882812 0.953125 -8.1875 C 0.953125 -9.476562 1.148438 -10.640625 1.546875 -11.671875 C 1.941406 -12.710938 2.5 -13.59375 3.21875 -14.3125 C 3.9375 -15.039062 4.796875 -15.597656 5.796875 -15.984375 C 6.804688 -16.378906 7.929688 -16.578125 9.171875 -16.578125 Z M 9.171875 -3.03125 C 10.410156 -3.03125 11.332031 -3.460938 11.9375 -4.328125 C 12.539062 -5.191406 12.84375 -6.472656 12.84375 -8.171875 C 12.84375 -9.859375 12.539062 -11.128906 11.9375 -11.984375 C 11.332031 -12.847656 10.410156 -13.28125 9.171875 -13.28125 C 7.890625 -13.28125 6.945312 -12.847656 6.34375 -11.984375 C 5.738281 -11.128906 5.4375 -9.859375 5.4375 -8.171875 C 5.4375 -6.472656 5.738281 -5.191406 6.34375 -4.328125 C 6.945312 -3.460938 7.890625 -3.03125 9.171875 -3.03125 Z M 9.171875 -3.03125 "/></g></g></g><g fill="#ffffff" fill-opacity="1"><g transform="translate(160.630622, 102.588848)"><g><path d="M 16.828125 -16.3125 L 10.421875 0 L 6.453125 0 L 0.046875 -16.3125 L 3.671875 -16.3125 C 3.984375 -16.3125 4.242188 -16.238281 4.453125 -16.09375 C 4.671875 -15.945312 4.820312 -15.757812 4.90625 -15.53125 L 7.640625 -7.453125 C 7.828125 -6.898438 7.988281 -6.363281 8.125 -5.84375 C 8.257812 -5.320312 8.378906 -4.800781 8.484375 -4.28125 C 8.597656 -4.800781 8.722656 -5.320312 8.859375 -5.84375 C 9.003906 -6.363281 9.175781 -6.898438 9.375 -7.453125 L 12.203125 -15.53125 C 12.273438 -15.757812 12.414062 -15.945312 12.625 -16.09375 C 12.84375 -16.238281 13.09375 -16.3125 13.375 -16.3125 Z M 16.828125 -16.3125 "/></g></g></g><g fill="#ffffff" fill-opacity="1"><g transform="translate(177.501249, 102.588848)"><g><path d="M 12.15625 -10.078125 C 12.15625 -10.535156 12.09375 -10.96875 11.96875 -11.375 C 11.851562 -11.789062 11.660156 -12.15625 11.390625 -12.46875 C 11.128906 -12.789062 10.796875 -13.039062 10.390625 -13.21875 C 9.992188 -13.40625 9.515625 -13.5 8.953125 -13.5 C 7.910156 -13.5 7.09375 -13.203125 6.5 -12.609375 C 5.914062 -12.023438 5.53125 -11.179688 5.34375 -10.078125 Z M 5.28125 -7.484375 C 5.425781 -5.953125 5.863281 -4.832031 6.59375 -4.125 C 7.320312 -3.425781 8.28125 -3.078125 9.46875 -3.078125 C 10.070312 -3.078125 10.59375 -3.144531 11.03125 -3.28125 C 11.46875 -3.425781 11.847656 -3.582031 12.171875 -3.75 C 12.503906 -3.925781 12.804688 -4.085938 13.078125 -4.234375 C 13.347656 -4.378906 13.613281 -4.453125 13.875 -4.453125 C 14.21875 -4.453125 14.484375 -4.320312 14.671875 -4.0625 L 15.9375 -2.484375 C 15.476562 -1.941406 14.96875 -1.492188 14.40625 -1.140625 C 13.84375 -0.796875 13.257812 -0.519531 12.65625 -0.3125 C 12.0625 -0.101562 11.457031 0.0351562 10.84375 0.109375 C 10.226562 0.191406 9.632812 0.234375 9.0625 0.234375 C 7.925781 0.234375 6.863281 0.046875 5.875 -0.328125 C 4.894531 -0.703125 4.035156 -1.253906 3.296875 -1.984375 C 2.566406 -2.722656 1.988281 -3.632812 1.5625 -4.71875 C 1.144531 -5.800781 0.9375 -7.0625 0.9375 -8.5 C 0.9375 -9.601562 1.117188 -10.644531 1.484375 -11.625 C 1.847656 -12.613281 2.367188 -13.472656 3.046875 -14.203125 C 3.734375 -14.929688 4.566406 -15.507812 5.546875 -15.9375 C 6.535156 -16.363281 7.644531 -16.578125 8.875 -16.578125 C 9.925781 -16.578125 10.890625 -16.410156 11.765625 -16.078125 C 12.648438 -15.742188 13.410156 -15.257812 14.046875 -14.625 C 14.679688 -13.988281 15.175781 -13.207031 15.53125 -12.28125 C 15.882812 -11.363281 16.0625 -10.316406 16.0625 -9.140625 C 16.0625 -8.804688 16.046875 -8.535156 16.015625 -8.328125 C 15.984375 -8.117188 15.929688 -7.945312 15.859375 -7.8125 C 15.785156 -7.6875 15.6875 -7.597656 15.5625 -7.546875 C 15.4375 -7.503906 15.269531 -7.484375 15.0625 -7.484375 Z M 5.28125 -7.484375 "/></g></g></g><g fill="#ffffff" fill-opacity="1"><g transform="translate(194.46684, 102.588848)"><g><path d="M 5.90625 -13.625 C 6.414062 -14.550781 7.007812 -15.285156 7.6875 -15.828125 C 8.363281 -16.367188 9.15625 -16.640625 10.0625 -16.640625 C 10.800781 -16.640625 11.40625 -16.460938 11.875 -16.109375 L 11.59375 -12.890625 C 11.53125 -12.671875 11.441406 -12.519531 11.328125 -12.4375 C 11.222656 -12.363281 11.078125 -12.328125 10.890625 -12.328125 C 10.722656 -12.328125 10.476562 -12.347656 10.15625 -12.390625 C 9.84375 -12.441406 9.550781 -12.46875 9.28125 -12.46875 C 8.875 -12.46875 8.515625 -12.410156 8.203125 -12.296875 C 7.890625 -12.179688 7.613281 -12.015625 7.375 -11.796875 C 7.132812 -11.585938 6.914062 -11.332031 6.71875 -11.03125 C 6.519531 -10.726562 6.335938 -10.378906 6.171875 -9.984375 L 6.171875 0 L 1.796875 0 L 1.796875 -16.3125 L 4.390625 -16.3125 C 4.828125 -16.3125 5.128906 -16.234375 5.296875 -16.078125 C 5.472656 -15.921875 5.597656 -15.648438 5.671875 -15.265625 Z M 5.90625 -13.625 "/></g></g></g><g fill="#ffffff" fill-opacity="1"><g transform="translate(206.39972, 102.588848)"><g><path d="M 11.953125 -12.96875 C 11.835938 -12.78125 11.71875 -12.644531 11.59375 -12.5625 C 11.46875 -12.488281 11.300781 -12.453125 11.09375 -12.453125 C 10.882812 -12.453125 10.664062 -12.503906 10.4375 -12.609375 C 10.21875 -12.710938 9.972656 -12.828125 9.703125 -12.953125 C 9.429688 -13.078125 9.117188 -13.191406 8.765625 -13.296875 C 8.410156 -13.398438 8 -13.453125 7.53125 -13.453125 C 6.820312 -13.453125 6.269531 -13.304688 5.875 -13.015625 C 5.488281 -12.722656 5.296875 -12.34375 5.296875 -11.875 C 5.296875 -11.539062 5.40625 -11.265625 5.625 -11.046875 C 5.851562 -10.828125 6.148438 -10.632812 6.515625 -10.46875 C 6.878906 -10.300781 7.289062 -10.144531 7.75 -10 C 8.21875 -9.863281 8.695312 -9.710938 9.1875 -9.546875 C 9.675781 -9.378906 10.148438 -9.179688 10.609375 -8.953125 C 11.078125 -8.734375 11.492188 -8.457031 11.859375 -8.125 C 12.222656 -7.789062 12.515625 -7.390625 12.734375 -6.921875 C 12.960938 -6.453125 13.078125 -5.882812 13.078125 -5.21875 C 13.078125 -4.425781 12.929688 -3.695312 12.640625 -3.03125 C 12.347656 -2.363281 11.921875 -1.785156 11.359375 -1.296875 C 10.804688 -0.804688 10.113281 -0.425781 9.28125 -0.15625 C 8.445312 0.113281 7.484375 0.25 6.390625 0.25 C 5.835938 0.25 5.285156 0.195312 4.734375 0.09375 C 4.179688 0 3.65625 -0.132812 3.15625 -0.3125 C 2.664062 -0.5 2.203125 -0.710938 1.765625 -0.953125 C 1.335938 -1.203125 0.96875 -1.46875 0.65625 -1.75 L 1.65625 -3.390625 C 1.78125 -3.578125 1.925781 -3.722656 2.09375 -3.828125 C 2.269531 -3.929688 2.492188 -3.984375 2.765625 -3.984375 C 3.035156 -3.984375 3.28125 -3.914062 3.5 -3.78125 C 3.71875 -3.65625 3.960938 -3.515625 4.234375 -3.359375 C 4.515625 -3.210938 4.84375 -3.070312 5.21875 -2.9375 C 5.59375 -2.800781 6.054688 -2.734375 6.609375 -2.734375 C 7.035156 -2.734375 7.398438 -2.78125 7.703125 -2.875 C 8.015625 -2.96875 8.265625 -3.097656 8.453125 -3.265625 C 8.640625 -3.429688 8.773438 -3.613281 8.859375 -3.8125 C 8.953125 -4.019531 9 -4.238281 9 -4.46875 C 9 -4.820312 8.882812 -5.113281 8.65625 -5.34375 C 8.4375 -5.570312 8.144531 -5.769531 7.78125 -5.9375 C 7.414062 -6.101562 6.992188 -6.253906 6.515625 -6.390625 C 6.046875 -6.523438 5.566406 -6.675781 5.078125 -6.84375 C 4.585938 -7.019531 4.101562 -7.222656 3.625 -7.453125 C 3.15625 -7.679688 2.738281 -7.972656 2.375 -8.328125 C 2.019531 -8.679688 1.726562 -9.117188 1.5 -9.640625 C 1.269531 -10.160156 1.15625 -10.785156 1.15625 -11.515625 C 1.15625 -12.191406 1.285156 -12.832031 1.546875 -13.4375 C 1.816406 -14.050781 2.210938 -14.585938 2.734375 -15.046875 C 3.265625 -15.515625 3.921875 -15.882812 4.703125 -16.15625 C 5.492188 -16.4375 6.40625 -16.578125 7.4375 -16.578125 C 8.601562 -16.578125 9.660156 -16.382812 10.609375 -16 C 11.554688 -15.625 12.335938 -15.128906 12.953125 -14.515625 Z M 11.953125 -12.96875 "/></g></g></g><g fill="#ffffff" fill-opacity="1"><g transform="translate(220.405822, 102.588848)"><g><path d="M 12.15625 -10.078125 C 12.15625 -10.535156 12.09375 -10.96875 11.96875 -11.375 C 11.851562 -11.789062 11.660156 -12.15625 11.390625 -12.46875 C 11.128906 -12.789062 10.796875 -13.039062 10.390625 -13.21875 C 9.992188 -13.40625 9.515625 -13.5 8.953125 -13.5 C 7.910156 -13.5 7.09375 -13.203125 6.5 -12.609375 C 5.914062 -12.023438 5.53125 -11.179688 5.34375 -10.078125 Z M 5.28125 -7.484375 C 5.425781 -5.953125 5.863281 -4.832031 6.59375 -4.125 C 7.320312 -3.425781 8.28125 -3.078125 9.46875 -3.078125 C 10.070312 -3.078125 10.59375 -3.144531 11.03125 -3.28125 C 11.46875 -3.425781 11.847656 -3.582031 12.171875 -3.75 C 12.503906 -3.925781 12.804688 -4.085938 13.078125 -4.234375 C 13.347656 -4.378906 13.613281 -4.453125 13.875 -4.453125 C 14.21875 -4.453125 14.484375 -4.320312 14.671875 -4.0625 L 15.9375 -2.484375 C 15.476562 -1.941406 14.96875 -1.492188 14.40625 -1.140625 C 13.84375 -0.796875 13.257812 -0.519531 12.65625 -0.3125 C 12.0625 -0.101562 11.457031 0.0351562 10.84375 0.109375 C 10.226562 0.191406 9.632812 0.234375 9.0625 0.234375 C 7.925781 0.234375 6.863281 0.046875 5.875 -0.328125 C 4.894531 -0.703125 4.035156 -1.253906 3.296875 -1.984375 C 2.566406 -2.722656 1.988281 -3.632812 1.5625 -4.71875 C 1.144531 -5.800781 0.9375 -7.0625 0.9375 -8.5 C 0.9375 -9.601562 1.117188 -10.644531 1.484375 -11.625 C 1.847656 -12.613281 2.367188 -13.472656 3.046875 -14.203125 C 3.734375 -14.929688 4.566406 -15.507812 5.546875 -15.9375 C 6.535156 -16.363281 7.644531 -16.578125 8.875 -16.578125 C 9.925781 -16.578125 10.890625 -16.410156 11.765625 -16.078125 C 12.648438 -15.742188 13.410156 -15.257812 14.046875 -14.625 C 14.679688 -13.988281 15.175781 -13.207031 15.53125 -12.28125 C 15.882812 -11.363281 16.0625 -10.316406 16.0625 -9.140625 C 16.0625 -8.804688 16.046875 -8.535156 16.015625 -8.328125 C 15.984375 -8.117188 15.929688 -7.945312 15.859375 -7.8125 C 15.785156 -7.6875 15.6875 -7.597656 15.5625 -7.546875 C 15.4375 -7.503906 15.269531 -7.484375 15.0625 -7.484375 Z M 5.28125 -7.484375 "/></g></g></g><g fill="#ffffff" fill-opacity="1"><g transform="translate(237.371413, 102.588848)"><g/></g></g><g fill="#ffffff" fill-opacity="1"><g transform="translate(244.888808, 102.588848)"><g><path d="M 25.4375 -16.3125 L 20.3125 0 L 16.78125 0 C 16.601562 0 16.441406 -0.0546875 16.296875 -0.171875 C 16.148438 -0.285156 16.039062 -0.484375 15.96875 -0.765625 L 13.3125 -9.59375 C 13.207031 -9.925781 13.113281 -10.257812 13.03125 -10.59375 C 12.957031 -10.925781 12.890625 -11.265625 12.828125 -11.609375 C 12.742188 -11.265625 12.660156 -10.921875 12.578125 -10.578125 C 12.503906 -10.234375 12.414062 -9.894531 12.3125 -9.5625 L 9.625 -0.765625 C 9.476562 -0.253906 9.160156 0 8.671875 0 L 5.3125 0 L 0.1875 -16.3125 L 3.671875 -16.3125 C 3.984375 -16.3125 4.25 -16.238281 4.46875 -16.09375 C 4.6875 -15.945312 4.832031 -15.757812 4.90625 -15.53125 L 6.921875 -7.453125 C 7.046875 -6.929688 7.15625 -6.425781 7.25 -5.9375 C 7.34375 -5.457031 7.429688 -4.984375 7.515625 -4.515625 C 7.640625 -4.984375 7.773438 -5.457031 7.921875 -5.9375 C 8.066406 -6.425781 8.21875 -6.929688 8.375 -7.453125 L 10.765625 -15.5625 C 10.835938 -15.78125 10.976562 -15.960938 11.1875 -16.109375 C 11.394531 -16.253906 11.644531 -16.328125 11.9375 -16.328125 L 13.859375 -16.328125 C 14.171875 -16.328125 14.429688 -16.253906 14.640625 -16.109375 C 14.859375 -15.960938 15.003906 -15.78125 15.078125 -15.5625 L 17.390625 -7.453125 C 17.535156 -6.941406 17.675781 -6.441406 17.8125 -5.953125 C 17.957031 -5.460938 18.085938 -4.972656 18.203125 -4.484375 C 18.285156 -4.960938 18.375 -5.445312 18.46875 -5.9375 C 18.570312 -6.425781 18.691406 -6.929688 18.828125 -7.453125 L 20.9375 -15.53125 C 21.007812 -15.757812 21.148438 -15.945312 21.359375 -16.09375 C 21.578125 -16.238281 21.828125 -16.3125 22.109375 -16.3125 Z M 25.4375 -16.3125 "/></g></g></g><g fill="#ffffff" fill-opacity="1"><g transform="translate(270.511269, 102.588848)"><g><path d="M 6.296875 -16.3125 L 6.296875 0 L 1.9375 0 L 1.9375 -16.3125 Z M 6.828125 -20.953125 C 6.828125 -20.585938 6.75 -20.242188 6.59375 -19.921875 C 6.445312 -19.609375 6.25 -19.328125 6 -19.078125 C 5.757812 -18.835938 5.472656 -18.648438 5.140625 -18.515625 C 4.804688 -18.378906 4.445312 -18.3125 4.0625 -18.3125 C 3.707031 -18.3125 3.367188 -18.378906 3.046875 -18.515625 C 2.722656 -18.648438 2.441406 -18.835938 2.203125 -19.078125 C 1.960938 -19.328125 1.769531 -19.609375 1.625 -19.921875 C 1.476562 -20.242188 1.40625 -20.585938 1.40625 -20.953125 C 1.40625 -21.328125 1.476562 -21.671875 1.625 -21.984375 C 1.769531 -22.304688 1.960938 -22.585938 2.203125 -22.828125 C 2.441406 -23.078125 2.722656 -23.269531 3.046875 -23.40625 C 3.367188 -23.539062 3.707031 -23.609375 4.0625 -23.609375 C 4.445312 -23.609375 4.804688 -23.539062 5.140625 -23.40625 C 5.472656 -23.269531 5.757812 -23.078125 6 -22.828125 C 6.25 -22.585938 6.445312 -22.304688 6.59375 -21.984375 C 6.75 -21.671875 6.828125 -21.328125 6.828125 -20.953125 Z M 6.828125 -20.953125 "/></g></g></g><g fill="#ffffff" fill-opacity="1"><g transform="translate(278.740841, 102.588848)"><g><path d="M 13.71875 -14.546875 C 13.71875 -14.242188 13.664062 -13.945312 13.5625 -13.65625 C 13.457031 -13.363281 13.320312 -13.128906 13.15625 -12.953125 L 5.828125 -3.296875 L 13.515625 -3.296875 L 13.515625 0 L 0.78125 0 L 0.78125 -1.796875 C 0.78125 -1.984375 0.828125 -2.210938 0.921875 -2.484375 C 1.023438 -2.753906 1.164062 -3.015625 1.34375 -3.265625 L 8.734375 -13.03125 L 1.234375 -13.03125 L 1.234375 -16.3125 L 13.71875 -16.3125 Z M 13.71875 -14.546875 "/></g></g></g><g fill="#ffffff" fill-opacity="1"><g transform="translate(293.379985, 102.588848)"><g><path d="M 10.328125 -6.828125 C 9.265625 -6.773438 8.378906 -6.679688 7.671875 -6.546875 C 6.960938 -6.410156 6.398438 -6.238281 5.984375 -6.03125 C 5.566406 -5.820312 5.269531 -5.582031 5.09375 -5.3125 C 4.925781 -5.039062 4.84375 -4.75 4.84375 -4.4375 C 4.84375 -3.800781 5.019531 -3.347656 5.375 -3.078125 C 5.726562 -2.816406 6.222656 -2.6875 6.859375 -2.6875 C 7.585938 -2.6875 8.21875 -2.816406 8.75 -3.078125 C 9.28125 -3.335938 9.804688 -3.742188 10.328125 -4.296875 Z M 1.4375 -14.0625 C 2.394531 -14.925781 3.453125 -15.570312 4.609375 -16 C 5.773438 -16.425781 7.035156 -16.640625 8.390625 -16.640625 C 9.359375 -16.640625 10.222656 -16.476562 10.984375 -16.15625 C 11.753906 -15.84375 12.40625 -15.398438 12.9375 -14.828125 C 13.46875 -14.265625 13.875 -13.59375 14.15625 -12.8125 C 14.445312 -12.039062 14.59375 -11.1875 14.59375 -10.25 L 14.59375 0 L 12.59375 0 C 12.1875 0 11.875 -0.0546875 11.65625 -0.171875 C 11.4375 -0.285156 11.257812 -0.53125 11.125 -0.90625 L 10.78125 -1.953125 C 10.363281 -1.585938 9.960938 -1.265625 9.578125 -0.984375 C 9.191406 -0.710938 8.789062 -0.484375 8.375 -0.296875 C 7.96875 -0.117188 7.53125 0.015625 7.0625 0.109375 C 6.59375 0.203125 6.070312 0.25 5.5 0.25 C 4.78125 0.25 4.125 0.15625 3.53125 -0.03125 C 2.9375 -0.21875 2.425781 -0.5 2 -0.875 C 1.570312 -1.25 1.242188 -1.71875 1.015625 -2.28125 C 0.785156 -2.84375 0.671875 -3.484375 0.671875 -4.203125 C 0.671875 -4.804688 0.820312 -5.410156 1.125 -6.015625 C 1.425781 -6.617188 1.945312 -7.164062 2.6875 -7.65625 C 3.4375 -8.144531 4.429688 -8.550781 5.671875 -8.875 C 6.910156 -9.195312 8.460938 -9.378906 10.328125 -9.421875 L 10.328125 -10.25 C 10.328125 -11.28125 10.109375 -12.035156 9.671875 -12.515625 C 9.242188 -12.992188 8.625 -13.234375 7.8125 -13.234375 C 7.21875 -13.234375 6.71875 -13.160156 6.3125 -13.015625 C 5.914062 -12.878906 5.566406 -12.726562 5.265625 -12.5625 C 4.960938 -12.394531 4.675781 -12.238281 4.40625 -12.09375 C 4.144531 -11.957031 3.84375 -11.890625 3.5 -11.890625 C 3.1875 -11.890625 2.925781 -11.960938 2.71875 -12.109375 C 2.519531 -12.265625 2.351562 -12.445312 2.21875 -12.65625 Z M 1.4375 -14.0625 "/></g></g></g><g fill="#ffffff" fill-opacity="1"><g transform="translate(309.585917, 102.588848)"><g><path d="M 5.90625 -13.625 C 6.414062 -14.550781 7.007812 -15.285156 7.6875 -15.828125 C 8.363281 -16.367188 9.15625 -16.640625 10.0625 -16.640625 C 10.800781 -16.640625 11.40625 -16.460938 11.875 -16.109375 L 11.59375 -12.890625 C 11.53125 -12.671875 11.441406 -12.519531 11.328125 -12.4375 C 11.222656 -12.363281 11.078125 -12.328125 10.890625 -12.328125 C 10.722656 -12.328125 10.476562 -12.347656 10.15625 -12.390625 C 9.84375 -12.441406 9.550781 -12.46875 9.28125 -12.46875 C 8.875 -12.46875 8.515625 -12.410156 8.203125 -12.296875 C 7.890625 -12.179688 7.613281 -12.015625 7.375 -11.796875 C 7.132812 -11.585938 6.914062 -11.332031 6.71875 -11.03125 C 6.519531 -10.726562 6.335938 -10.378906 6.171875 -9.984375 L 6.171875 0 L 1.796875 0 L 1.796875 -16.3125 L 4.390625 -16.3125 C 4.828125 -16.3125 5.128906 -16.234375 5.296875 -16.078125 C 5.472656 -15.921875 5.597656 -15.648438 5.671875 -15.265625 Z M 5.90625 -13.625 "/></g></g></g><g fill="#ffffff" fill-opacity="1"><g transform="translate(321.518808, 102.588848)"><g><path d="M 11.890625 -12.078125 C 11.472656 -12.554688 11.023438 -12.890625 10.546875 -13.078125 C 10.066406 -13.265625 9.554688 -13.359375 9.015625 -13.359375 C 8.492188 -13.359375 8.015625 -13.253906 7.578125 -13.046875 C 7.148438 -12.847656 6.78125 -12.535156 6.46875 -12.109375 C 6.15625 -11.679688 5.914062 -11.132812 5.75 -10.46875 C 5.582031 -9.8125 5.5 -9.023438 5.5 -8.109375 C 5.5 -7.203125 5.566406 -6.429688 5.703125 -5.796875 C 5.835938 -5.160156 6.03125 -4.644531 6.28125 -4.25 C 6.539062 -3.863281 6.851562 -3.582031 7.21875 -3.40625 C 7.59375 -3.238281 8.007812 -3.15625 8.46875 -3.15625 C 9.238281 -3.15625 9.882812 -3.304688 10.40625 -3.609375 C 10.925781 -3.910156 11.421875 -4.34375 11.890625 -4.90625 Z M 16.25 -23.59375 L 16.25 0 L 13.5625 0 C 13 0 12.640625 -0.253906 12.484375 -0.765625 L 12.125 -2.1875 C 11.800781 -1.820312 11.457031 -1.492188 11.09375 -1.203125 C 10.726562 -0.910156 10.332031 -0.65625 9.90625 -0.4375 C 9.488281 -0.21875 9.035156 -0.0507812 8.546875 0.0625 C 8.054688 0.175781 7.53125 0.234375 6.96875 0.234375 C 6.09375 0.234375 5.289062 0.0507812 4.5625 -0.3125 C 3.832031 -0.6875 3.203125 -1.226562 2.671875 -1.9375 C 2.140625 -2.644531 1.722656 -3.515625 1.421875 -4.546875 C 1.128906 -5.585938 0.984375 -6.773438 0.984375 -8.109375 C 0.984375 -9.316406 1.148438 -10.441406 1.484375 -11.484375 C 1.816406 -12.535156 2.285156 -13.441406 2.890625 -14.203125 C 3.503906 -14.960938 4.242188 -15.554688 5.109375 -15.984375 C 5.972656 -16.421875 6.9375 -16.640625 8 -16.640625 C 8.882812 -16.640625 9.628906 -16.503906 10.234375 -16.234375 C 10.835938 -15.972656 11.390625 -15.613281 11.890625 -15.15625 L 11.890625 -23.59375 Z M 16.25 -23.59375 "/></g></g></g><g fill="#ffffff" fill-opacity="1"><g transform="translate(339.592232, 102.588848)"><g><path d="M 11.953125 -12.96875 C 11.835938 -12.78125 11.71875 -12.644531 11.59375 -12.5625 C 11.46875 -12.488281 11.300781 -12.453125 11.09375 -12.453125 C 10.882812 -12.453125 10.664062 -12.503906 10.4375 -12.609375 C 10.21875 -12.710938 9.972656 -12.828125 9.703125 -12.953125 C 9.429688 -13.078125 9.117188 -13.191406 8.765625 -13.296875 C 8.410156 -13.398438 8 -13.453125 7.53125 -13.453125 C 6.820312 -13.453125 6.269531 -13.304688 5.875 -13.015625 C 5.488281 -12.722656 5.296875 -12.34375 5.296875 -11.875 C 5.296875 -11.539062 5.40625 -11.265625 5.625 -11.046875 C 5.851562 -10.828125 6.148438 -10.632812 6.515625 -10.46875 C 6.878906 -10.300781 7.289062 -10.144531 7.75 -10 C 8.21875 -9.863281 8.695312 -9.710938 9.1875 -9.546875 C 9.675781 -9.378906 10.148438 -9.179688 10.609375 -8.953125 C 11.078125 -8.734375 11.492188 -8.457031 11.859375 -8.125 C 12.222656 -7.789062 12.515625 -7.390625 12.734375 -6.921875 C 12.960938 -6.453125 13.078125 -5.882812 13.078125 -5.21875 C 13.078125 -4.425781 12.929688 -3.695312 12.640625 -3.03125 C 12.347656 -2.363281 11.921875 -1.785156 11.359375 -1.296875 C 10.804688 -0.804688 10.113281 -0.425781 9.28125 -0.15625 C 8.445312 0.113281 7.484375 0.25 6.390625 0.25 C 5.835938 0.25 5.285156 0.195312 4.734375 0.09375 C 4.179688 0 3.65625 -0.132812 3.15625 -0.3125 C 2.664062 -0.5 2.203125 -0.710938 1.765625 -0.953125 C 1.335938 -1.203125 0.96875 -1.46875 0.65625 -1.75 L 1.65625 -3.390625 C 1.78125 -3.578125 1.925781 -3.722656 2.09375 -3.828125 C 2.269531 -3.929688 2.492188 -3.984375 2.765625 -3.984375 C 3.035156 -3.984375 3.28125 -3.914062 3.5 -3.78125 C 3.71875 -3.65625 3.960938 -3.515625 4.234375 -3.359375 C 4.515625 -3.210938 4.84375 -3.070312 5.21875 -2.9375 C 5.59375 -2.800781 6.054688 -2.734375 6.609375 -2.734375 C 7.035156 -2.734375 7.398438 -2.78125 7.703125 -2.875 C 8.015625 -2.96875 8.265625 -3.097656 8.453125 -3.265625 C 8.640625 -3.429688 8.773438 -3.613281 8.859375 -3.8125 C 8.953125 -4.019531 9 -4.238281 9 -4.46875 C 9 -4.820312 8.882812 -5.113281 8.65625 -5.34375 C 8.4375 -5.570312 8.144531 -5.769531 7.78125 -5.9375 C 7.414062 -6.101562 6.992188 -6.253906 6.515625 -6.390625 C 6.046875 -6.523438 5.566406 -6.675781 5.078125 -6.84375 C 4.585938 -7.019531 4.101562 -7.222656 3.625 -7.453125 C 3.15625 -7.679688 2.738281 -7.972656 2.375 -8.328125 C 2.019531 -8.679688 1.726562 -9.117188 1.5 -9.640625 C 1.269531 -10.160156 1.15625 -10.785156 1.15625 -11.515625 C 1.15625 -12.191406 1.285156 -12.832031 1.546875 -13.4375 C 1.816406 -14.050781 2.210938 -14.585938 2.734375 -15.046875 C 3.265625 -15.515625 3.921875 -15.882812 4.703125 -16.15625 C 5.492188 -16.4375 6.40625 -16.578125 7.4375 -16.578125 C 8.601562 -16.578125 9.660156 -16.382812 10.609375 -16 C 11.554688 -15.625 12.335938 -15.128906 12.953125 -14.515625 Z M 11.953125 -12.96875 "/></g></g></g><g fill="#ffffff" fill-opacity="1"><g transform="translate(353.592566, 102.588848)"><g/></g></g><g fill="#ffffff" fill-opacity="1"><g transform="translate(78.423302, 72.588843)"><g><path d="M 25.4375 -16.3125 L 20.3125 0 L 16.78125 0 C 16.601562 0 16.441406 -0.0546875 16.296875 -0.171875 C 16.148438 -0.285156 16.039062 -0.484375 15.96875 -0.765625 L 13.3125 -9.59375 C 13.207031 -9.925781 13.113281 -10.257812 13.03125 -10.59375 C 12.957031 -10.925781 12.890625 -11.265625 12.828125 -11.609375 C 12.742188 -11.265625 12.660156 -10.921875 12.578125 -10.578125 C 12.503906 -10.234375 12.414062 -9.894531 12.3125 -9.5625 L 9.625 -0.765625 C 9.476562 -0.253906 9.160156 0 8.671875 0 L 5.3125 0 L 0.1875 -16.3125 L 3.671875 -16.3125 C 3.984375 -16.3125 4.25 -16.238281 4.46875 -16.09375 C 4.6875 -15.945312 4.832031 -15.757812 4.90625 -15.53125 L 6.921875 -7.453125 C 7.046875 -6.929688 7.15625 -6.425781 7.25 -5.9375 C 7.34375 -5.457031 7.429688 -4.984375 7.515625 -4.515625 C 7.640625 -4.984375 7.773438 -5.457031 7.921875 -5.9375 C 8.066406 -6.425781 8.21875 -6.929688 8.375 -7.453125 L 10.765625 -15.5625 C 10.835938 -15.78125 10.976562 -15.960938 11.1875 -16.109375 C 11.394531 -16.253906 11.644531 -16.328125 11.9375 -16.328125 L 13.859375 -16.328125 C 14.171875 -16.328125 14.429688 -16.253906 14.640625 -16.109375 C 14.859375 -15.960938 15.003906 -15.78125 15.078125 -15.5625 L 17.390625 -7.453125 C 17.535156 -6.941406 17.675781 -6.441406 17.8125 -5.953125 C 17.957031 -5.460938 18.085938 -4.972656 18.203125 -4.484375 C 18.285156 -4.960938 18.375 -5.445312 18.46875 -5.9375 C 18.570312 -6.425781 18.691406 -6.929688 18.828125 -7.453125 L 20.9375 -15.53125 C 21.007812 -15.757812 21.148438 -15.945312 21.359375 -16.09375 C 21.578125 -16.238281 21.828125 -16.3125 22.109375 -16.3125 Z M 25.4375 -16.3125 "/></g></g></g><g fill="#ffffff" fill-opacity="1"><g transform="translate(104.045764, 72.588843)"><g><path d="M 9.171875 -16.578125 C 10.390625 -16.578125 11.5 -16.378906 12.5 -15.984375 C 13.507812 -15.597656 14.367188 -15.039062 15.078125 -14.3125 C 15.796875 -13.59375 16.347656 -12.710938 16.734375 -11.671875 C 17.128906 -10.640625 17.328125 -9.476562 17.328125 -8.1875 C 17.328125 -6.882812 17.128906 -5.710938 16.734375 -4.671875 C 16.347656 -3.640625 15.796875 -2.757812 15.078125 -2.03125 C 14.367188 -1.300781 13.507812 -0.738281 12.5 -0.34375 C 11.5 0.0390625 10.390625 0.234375 9.171875 0.234375 C 7.929688 0.234375 6.804688 0.0390625 5.796875 -0.34375 C 4.796875 -0.738281 3.9375 -1.300781 3.21875 -2.03125 C 2.5 -2.757812 1.941406 -3.640625 1.546875 -4.671875 C 1.148438 -5.710938 0.953125 -6.882812 0.953125 -8.1875 C 0.953125 -9.476562 1.148438 -10.640625 1.546875 -11.671875 C 1.941406 -12.710938 2.5 -13.59375 3.21875 -14.3125 C 3.9375 -15.039062 4.796875 -15.597656 5.796875 -15.984375 C 6.804688 -16.378906 7.929688 -16.578125 9.171875 -16.578125 Z M 9.171875 -3.03125 C 10.410156 -3.03125 11.332031 -3.460938 11.9375 -4.328125 C 12.539062 -5.191406 12.84375 -6.472656 12.84375 -8.171875 C 12.84375 -9.859375 12.539062 -11.128906 11.9375 -11.984375 C 11.332031 -12.847656 10.410156 -13.28125 9.171875 -13.28125 C 7.890625 -13.28125 6.945312 -12.847656 6.34375 -11.984375 C 5.738281 -11.128906 5.4375 -9.859375 5.4375 -8.171875 C 5.4375 -6.472656 5.738281 -5.191406 6.34375 -4.328125 C 6.945312 -3.460938 7.890625 -3.03125 9.171875 -3.03125 Z M 9.171875 -3.03125 "/></g></g></g><g fill="#ffffff" fill-opacity="1"><g transform="translate(122.324919, 72.588843)"><g><path d="M 5.90625 -13.625 C 6.414062 -14.550781 7.007812 -15.285156 7.6875 -15.828125 C 8.363281 -16.367188 9.15625 -16.640625 10.0625 -16.640625 C 10.800781 -16.640625 11.40625 -16.460938 11.875 -16.109375 L 11.59375 -12.890625 C 11.53125 -12.671875 11.441406 -12.519531 11.328125 -12.4375 C 11.222656 -12.363281 11.078125 -12.328125 10.890625 -12.328125 C 10.722656 -12.328125 10.476562 -12.347656 10.15625 -12.390625 C 9.84375 -12.441406 9.550781 -12.46875 9.28125 -12.46875 C 8.875 -12.46875 8.515625 -12.410156 8.203125 -12.296875 C 7.890625 -12.179688 7.613281 -12.015625 7.375 -11.796875 C 7.132812 -11.585938 6.914062 -11.332031 6.71875 -11.03125 C 6.519531 -10.726562 6.335938 -10.378906 6.171875 -9.984375 L 6.171875 0 L 1.796875 0 L 1.796875 -16.3125 L 4.390625 -16.3125 C 4.828125 -16.3125 5.128906 -16.234375 5.296875 -16.078125 C 5.472656 -15.921875 5.597656 -15.648438 5.671875 -15.265625 Z M 5.90625 -13.625 "/></g></g></g><g fill="#ffffff" fill-opacity="1"><g transform="translate(134.257799, 72.588843)"><g><path d="M 6.203125 -23.59375 L 6.203125 0 L 1.84375 0 L 1.84375 -23.59375 Z M 6.203125 -23.59375 "/></g></g></g><g fill="#ffffff" fill-opacity="1"><g transform="translate(142.297456, 72.588843)"><g><path d="M 11.890625 -12.078125 C 11.472656 -12.554688 11.023438 -12.890625 10.546875 -13.078125 C 10.066406 -13.265625 9.554688 -13.359375 9.015625 -13.359375 C 8.492188 -13.359375 8.015625 -13.253906 7.578125 -13.046875 C 7.148438 -12.847656 6.78125 -12.535156 6.46875 -12.109375 C 6.15625 -11.679688 5.914062 -11.132812 5.75 -10.46875 C 5.582031 -9.8125 5.5 -9.023438 5.5 -8.109375 C 5.5 -7.203125 5.566406 -6.429688 5.703125 -5.796875 C 5.835938 -5.160156 6.03125 -4.644531 6.28125 -4.25 C 6.539062 -3.863281 6.851562 -3.582031 7.21875 -3.40625 C 7.59375 -3.238281 8.007812 -3.15625 8.46875 -3.15625 C 9.238281 -3.15625 9.882812 -3.304688 10.40625 -3.609375 C 10.925781 -3.910156 11.421875 -4.34375 11.890625 -4.90625 Z M 16.25 -23.59375 L 16.25 0 L 13.5625 0 C 13 0 12.640625 -0.253906 12.484375 -0.765625 L 12.125 -2.1875 C 11.800781 -1.820312 11.457031 -1.492188 11.09375 -1.203125 C 10.726562 -0.910156 10.332031 -0.65625 9.90625 -0.4375 C 9.488281 -0.21875 9.035156 -0.0507812 8.546875 0.0625 C 8.054688 0.175781 7.53125 0.234375 6.96875 0.234375 C 6.09375 0.234375 5.289062 0.0507812 4.5625 -0.3125 C 3.832031 -0.6875 3.203125 -1.226562 2.671875 -1.9375 C 2.140625 -2.644531 1.722656 -3.515625 1.421875 -4.546875 C 1.128906 -5.585938 0.984375 -6.773438 0.984375 -8.109375 C 0.984375 -9.316406 1.148438 -10.441406 1.484375 -11.484375 C 1.816406 -12.535156 2.285156 -13.441406 2.890625 -14.203125 C 3.503906 -14.960938 4.242188 -15.554688 5.109375 -15.984375 C 5.972656 -16.421875 6.9375 -16.640625 8 -16.640625 C 8.882812 -16.640625 9.628906 -16.503906 10.234375 -16.234375 C 10.835938 -15.972656 11.390625 -15.613281 11.890625 -15.15625 L 11.890625 -23.59375 Z M 16.25 -23.59375 "/></g></g></g><g fill="#ffffff" fill-opacity="1"><g transform="translate(160.370868, 72.588843)"><g><path d="M 25.4375 -16.3125 L 20.3125 0 L 16.78125 0 C 16.601562 0 16.441406 -0.0546875 16.296875 -0.171875 C 16.148438 -0.285156 16.039062 -0.484375 15.96875 -0.765625 L 13.3125 -9.59375 C 13.207031 -9.925781 13.113281 -10.257812 13.03125 -10.59375 C 12.957031 -10.925781 12.890625 -11.265625 12.828125 -11.609375 C 12.742188 -11.265625 12.660156 -10.921875 12.578125 -10.578125 C 12.503906 -10.234375 12.414062 -9.894531 12.3125 -9.5625 L 9.625 -0.765625 C 9.476562 -0.253906 9.160156 0 8.671875 0 L 5.3125 0 L 0.1875 -16.3125 L 3.671875 -16.3125 C 3.984375 -16.3125 4.25 -16.238281 4.46875 -16.09375 C 4.6875 -15.945312 4.832031 -15.757812 4.90625 -15.53125 L 6.921875 -7.453125 C 7.046875 -6.929688 7.15625 -6.425781 7.25 -5.9375 C 7.34375 -5.457031 7.429688 -4.984375 7.515625 -4.515625 C 7.640625 -4.984375 7.773438 -5.457031 7.921875 -5.9375 C 8.066406 -6.425781 8.21875 -6.929688 8.375 -7.453125 L 10.765625 -15.5625 C 10.835938 -15.78125 10.976562 -15.960938 11.1875 -16.109375 C 11.394531 -16.253906 11.644531 -16.328125 11.9375 -16.328125 L 13.859375 -16.328125 C 14.171875 -16.328125 14.429688 -16.253906 14.640625 -16.109375 C 14.859375 -15.960938 15.003906 -15.78125 15.078125 -15.5625 L 17.390625 -7.453125 C 17.535156 -6.941406 17.675781 -6.441406 17.8125 -5.953125 C 17.957031 -5.460938 18.085938 -4.972656 18.203125 -4.484375 C 18.285156 -4.960938 18.375 -5.445312 18.46875 -5.9375 C 18.570312 -6.425781 18.691406 -6.929688 18.828125 -7.453125 L 20.9375 -15.53125 C 21.007812 -15.757812 21.148438 -15.945312 21.359375 -16.09375 C 21.578125 -16.238281 21.828125 -16.3125 22.109375 -16.3125 Z M 25.4375 -16.3125 "/></g></g></g><g fill="#ffffff" fill-opacity="1"><g transform="translate(185.99333, 72.588843)"><g><path d="M 6.296875 -16.3125 L 6.296875 0 L 1.9375 0 L 1.9375 -16.3125 Z M 6.828125 -20.953125 C 6.828125 -20.585938 6.75 -20.242188 6.59375 -19.921875 C 6.445312 -19.609375 6.25 -19.328125 6 -19.078125 C 5.757812 -18.835938 5.472656 -18.648438 5.140625 -18.515625 C 4.804688 -18.378906 4.445312 -18.3125 4.0625 -18.3125 C 3.707031 -18.3125 3.367188 -18.378906 3.046875 -18.515625 C 2.722656 -18.648438 2.441406 -18.835938 2.203125 -19.078125 C 1.960938 -19.328125 1.769531 -19.609375 1.625 -19.921875 C 1.476562 -20.242188 1.40625 -20.585938 1.40625 -20.953125 C 1.40625 -21.328125 1.476562 -21.671875 1.625 -21.984375 C 1.769531 -22.304688 1.960938 -22.585938 2.203125 -22.828125 C 2.441406 -23.078125 2.722656 -23.269531 3.046875 -23.40625 C 3.367188 -23.539062 3.707031 -23.609375 4.0625 -23.609375 C 4.445312 -23.609375 4.804688 -23.539062 5.140625 -23.40625 C 5.472656 -23.269531 5.757812 -23.078125 6 -22.828125 C 6.25 -22.585938 6.445312 -22.304688 6.59375 -21.984375 C 6.75 -21.671875 6.828125 -21.328125 6.828125 -20.953125 Z M 6.828125 -20.953125 "/></g></g></g><g fill="#ffffff" fill-opacity="1"><g transform="translate(194.222902, 72.588843)"><g><path d="M 11.890625 -12.078125 C 11.472656 -12.554688 11.023438 -12.890625 10.546875 -13.078125 C 10.066406 -13.265625 9.554688 -13.359375 9.015625 -13.359375 C 8.492188 -13.359375 8.015625 -13.253906 7.578125 -13.046875 C 7.148438 -12.847656 6.78125 -12.535156 6.46875 -12.109375 C 6.15625 -11.679688 5.914062 -11.132812 5.75 -10.46875 C 5.582031 -9.8125 5.5 -9.023438 5.5 -8.109375 C 5.5 -7.203125 5.566406 -6.429688 5.703125 -5.796875 C 5.835938 -5.160156 6.03125 -4.644531 6.28125 -4.25 C 6.539062 -3.863281 6.851562 -3.582031 7.21875 -3.40625 C 7.59375 -3.238281 8.007812 -3.15625 8.46875 -3.15625 C 9.238281 -3.15625 9.882812 -3.304688 10.40625 -3.609375 C 10.925781 -3.910156 11.421875 -4.34375 11.890625 -4.90625 Z M 16.25 -23.59375 L 16.25 0 L 13.5625 0 C 13 0 12.640625 -0.253906 12.484375 -0.765625 L 12.125 -2.1875 C 11.800781 -1.820312 11.457031 -1.492188 11.09375 -1.203125 C 10.726562 -0.910156 10.332031 -0.65625 9.90625 -0.4375 C 9.488281 -0.21875 9.035156 -0.0507812 8.546875 0.0625 C 8.054688 0.175781 7.53125 0.234375 6.96875 0.234375 C 6.09375 0.234375 5.289062 0.0507812 4.5625 -0.3125 C 3.832031 -0.6875 3.203125 -1.226562 2.671875 -1.9375 C 2.140625 -2.644531 1.722656 -3.515625 1.421875 -4.546875 C 1.128906 -5.585938 0.984375 -6.773438 0.984375 -8.109375 C 0.984375 -9.316406 1.148438 -10.441406 1.484375 -11.484375 C 1.816406 -12.535156 2.285156 -13.441406 2.890625 -14.203125 C 3.503906 -14.960938 4.242188 -15.554688 5.109375 -15.984375 C 5.972656 -16.421875 6.9375 -16.640625 8 -16.640625 C 8.882812 -16.640625 9.628906 -16.503906 10.234375 -16.234375 C 10.835938 -15.972656 11.390625 -15.613281 11.890625 -15.15625 L 11.890625 -23.59375 Z M 16.25 -23.59375 "/></g></g></g><g fill="#ffffff" fill-opacity="1"><g transform="translate(212.296314, 72.588843)"><g><path d="M 12.15625 -10.078125 C 12.15625 -10.535156 12.09375 -10.96875 11.96875 -11.375 C 11.851562 -11.789062 11.660156 -12.15625 11.390625 -12.46875 C 11.128906 -12.789062 10.796875 -13.039062 10.390625 -13.21875 C 9.992188 -13.40625 9.515625 -13.5 8.953125 -13.5 C 7.910156 -13.5 7.09375 -13.203125 6.5 -12.609375 C 5.914062 -12.023438 5.53125 -11.179688 5.34375 -10.078125 Z M 5.28125 -7.484375 C 5.425781 -5.953125 5.863281 -4.832031 6.59375 -4.125 C 7.320312 -3.425781 8.28125 -3.078125 9.46875 -3.078125 C 10.070312 -3.078125 10.59375 -3.144531 11.03125 -3.28125 C 11.46875 -3.425781 11.847656 -3.582031 12.171875 -3.75 C 12.503906 -3.925781 12.804688 -4.085938 13.078125 -4.234375 C 13.347656 -4.378906 13.613281 -4.453125 13.875 -4.453125 C 14.21875 -4.453125 14.484375 -4.320312 14.671875 -4.0625 L 15.9375 -2.484375 C 15.476562 -1.941406 14.96875 -1.492188 14.40625 -1.140625 C 13.84375 -0.796875 13.257812 -0.519531 12.65625 -0.3125 C 12.0625 -0.101562 11.457031 0.0351562 10.84375 0.109375 C 10.226562 0.191406 9.632812 0.234375 9.0625 0.234375 C 7.925781 0.234375 6.863281 0.046875 5.875 -0.328125 C 4.894531 -0.703125 4.035156 -1.253906 3.296875 -1.984375 C 2.566406 -2.722656 1.988281 -3.632812 1.5625 -4.71875 C 1.144531 -5.800781 0.9375 -7.0625 0.9375 -8.5 C 0.9375 -9.601562 1.117188 -10.644531 1.484375 -11.625 C 1.847656 -12.613281 2.367188 -13.472656 3.046875 -14.203125 C 3.734375 -14.929688 4.566406 -15.507812 5.546875 -15.9375 C 6.535156 -16.363281 7.644531 -16.578125 8.875 -16.578125 C 9.925781 -16.578125 10.890625 -16.410156 11.765625 -16.078125 C 12.648438 -15.742188 13.410156 -15.257812 14.046875 -14.625 C 14.679688 -13.988281 15.175781 -13.207031 15.53125 -12.28125 C 15.882812 -11.363281 16.0625 -10.316406 16.0625 -9.140625 C 16.0625 -8.804688 16.046875 -8.535156 16.015625 -8.328125 C 15.984375 -8.117188 15.929688 -7.945312 15.859375 -7.8125 C 15.785156 -7.6875 15.6875 -7.597656 15.5625 -7.546875 C 15.4375 -7.503906 15.269531 -7.484375 15.0625 -7.484375 Z M 5.28125 -7.484375 "/></g></g></g></svg>